<svg xmlns="http://www.w3.org/2000/svg" width="20.279" height="21.967" viewBox="0 0 20.279 21.967">
    <g opacity="0.339">
        <path d="M2236.989 1452.118h-1.638a.845.845 0 1 1 0-1.687h5.019v-1.671a1.673 1.673 0 0 1 1.355-1.681 1.481 1.481 0 0 1 .314-.027h5.069a1.677 1.677 0 0 1 1.71 1.7v1.681h5.086a.842.842 0 0 1 .2 1.658 2.75 2.75 0 0 1-.577.027h-1.329v14.285a2.522 2.522 0 0 1-2.162 2.588 2.46 2.46 0 0 1-.42.024h-10.033a2.518 2.518 0 0 1-2.59-2.578v-13.967zm1.7.007c0 .063-.01.105-.01.148v14.152a.858.858 0 0 0 .919.9h9.9a.881.881 0 0 0 1.006-1v-14.198zm8.428-3.368h-5.037v1.658h5.037z" transform="translate(-2234.454 -1447.049)"/>
        <path d="M3111.764 2424.289v3.3a.845.845 0 1 1-1.687.009v-6.7a.844.844 0 1 1 1.688-.009c.001 1.132-.001 2.266-.001 3.4z" transform="translate(-2234.454 -1447.049) translate(-868.018 -964.539)"/>
        <path d="M3501.094 2424.485v3.323a.844.844 0 1 1-1.687.011v-6.7a.844.844 0 1 1 1.687.015q.006 1.676 0 3.351z" transform="translate(-2234.454 -1447.049) translate(-1253.969 -964.749)"/>
    </g>
</svg>
